<svg width="24" height="24" viewBox="0 0 24 24" fill="none" xmlns="http://www.w3.org/2000/svg">
<path d="M20.2519 18.4726C20.2519 18.053 20.2495 17.9366 20.2333 17.8447C20.1612 17.436 19.8906 17.0891 19.5117 16.9199C19.4264 16.8819 19.314 16.851 18.9062 16.749L17.2519 16.3359C16.6457 16.1844 16.2459 16.0849 15.9296 16.04C15.6308 15.9976 15.4717 16.0146 15.3456 16.0556C15.2196 16.0967 15.0808 16.1765 14.8642 16.3867C14.635 16.6092 14.3705 16.9249 13.9697 17.4043L12.8603 18.7305C14.5407 19.4506 16.4422 19.928 18.5517 20.1338C18.9374 20.1714 19.0333 20.1779 19.1542 20.1631C19.627 20.1049 20.1178 19.6592 20.2216 19.1943C20.2475 19.0782 20.2519 18.951 20.2519 18.4726ZM5.52923 3.74998C5.05092 3.74998 4.92362 3.75434 4.80755 3.78026C4.34266 3.8841 3.89701 4.37486 3.8388 4.84764C3.82396 4.96852 3.83047 5.0645 3.8681 5.45018C4.07386 7.55917 4.5506 9.46049 5.27044 11.1406L6.59759 10.0322C7.07699 9.63141 7.3927 9.36689 7.61517 9.13768C7.82539 8.92108 7.90518 8.78229 7.94622 8.65623C7.98725 8.53019 8.00426 8.37107 7.96185 8.07225C7.91696 7.75601 7.8175 7.35618 7.66595 6.74998L7.25286 5.09569C7.1509 4.68783 7.12001 4.5755 7.08196 4.49022C6.91276 4.11128 6.56586 3.84066 6.15716 3.76854C6.06528 3.75239 5.94885 3.74999 5.52923 3.74998ZM21.7519 18.4726C21.7519 18.887 21.7557 19.2069 21.6855 19.5215C21.4433 20.6054 20.4402 21.5156 19.3378 21.6514C19.021 21.6903 18.7505 21.6606 18.4052 21.6269C15.7657 21.3694 13.3904 20.7095 11.3212 19.6699C8.24707 18.1253 5.87658 15.7548 4.33196 12.6806C3.29232 10.6115 2.6325 8.23614 2.37493 5.59666C2.34125 5.25142 2.31152 4.98086 2.35052 4.66405C2.48624 3.56171 3.39646 2.55855 4.4804 2.31639C4.79499 2.24612 5.11484 2.24998 5.52923 2.24998C5.89038 2.24998 6.16514 2.24741 6.4179 2.29198C7.31732 2.4507 8.07996 3.0458 8.45208 3.87987C8.55661 4.11431 8.62032 4.38194 8.70794 4.73241L9.122 6.3867C9.26598 6.9626 9.38879 7.44986 9.4472 7.86131C9.50807 8.29021 9.50989 8.70056 9.37298 9.12108C9.23606 9.54148 8.99299 9.87181 8.69134 10.1826C8.40195 10.4807 8.01576 10.802 7.56048 11.1826L5.94817 12.5303C7.25133 14.8895 9.11156 16.7494 11.4706 18.0527L12.8193 16.4414C13.1999 15.9861 13.5211 15.5999 13.8193 15.3105C14.1301 15.0089 14.4604 14.7658 14.8808 14.6289C15.3013 14.492 15.7117 14.4938 16.1406 14.5547C16.552 14.6131 17.0393 14.7359 17.6152 14.8799L19.2695 15.2939C19.6199 15.3815 19.8876 15.4453 20.122 15.5498C20.9561 15.9219 21.5512 16.6846 21.7099 17.584C21.7545 17.8367 21.7519 18.1115 21.7519 18.4726Z" fill="white"/>
</svg>
